<?xml version="1.0" encoding="utf-8"?>
<!-- Generator: Adobe Illustrator 16.0.0, SVG Export Plug-In . SVG Version: 6.00 Build 0)  -->
<!DOCTYPE svg PUBLIC "-//W3C//DTD SVG 1.1//EN" "http://www.w3.org/Graphics/SVG/1.1/DTD/svg11.dtd">
<svg version="1.1" xmlns="http://www.w3.org/2000/svg" xmlns:xlink="http://www.w3.org/1999/xlink" x="0px" y="0px" width="216px"
	 height="216px" viewBox="0 0 216 216" enable-background="new 0 0 216 216" xml:space="preserve">
<g id="Layer_2" display="none">
	<rect x="-1" y="-3" display="inline" fill="#CCCCCC" width="218" height="222"/>
</g>
<g id="Layer_1">
	<g>
		<path fill="#FFFFFF" d="M190.912,108c0,45.795-37.114,82.92-82.92,82.92c-45.784,0-82.903-37.125-82.903-82.92
			s37.119-82.92,82.903-82.92C153.797,25.08,190.912,62.205,190.912,108z"/>
		<path fill="#FFABB3" d="M170.694,108c0,34.622-28.063,62.69-62.702,62.69c-34.622,0-62.68-28.068-62.68-62.69
			s28.058-62.702,62.68-62.702C142.63,45.298,170.694,73.378,170.694,108z"/>
		<path fill="#AA021E" d="M108.014,45.298c34.616,0,62.68,28.08,62.68,62.702s-28.063,62.69-62.68,62.69
			c-34.645,0-62.702-28.068-62.702-62.69S73.37,45.298,108.014,45.298 M108.014,39.063c-38.013,0-68.937,30.925-68.937,68.938
			s30.924,68.926,68.937,68.926c37.979,0,68.92-30.913,68.92-68.926S145.993,39.063,108.014,39.063L108.014,39.063z"/>
		<path fill="#AA021E" d="M106.336,116.175l-2.515-2.833l13.237-11.771l-10.12,3.715l1.536-13.044l-7.566,19.262l-3.527-1.388
			l9.467-24.092c-0.979-1.274-2.39-3.715-2.537-7.293c-0.228-5.706,2.35-7.686,4.897-8.869c0.387-0.183,0.905-0.358,1.479-0.546
			c0.751-0.251,2.315-0.769,2.56-1.246c0.103-0.233,0.29-1.234,0.416-1.895c0.534-2.861,1.046-5.558,3.248-5.848
			c1.74-0.165,2.952,1.229,3.902,4.397c0.012,0.005,1.029,2.628,1.263,3.55c2.19,8.8-6.61,16.668-9.176,18.738l-1.479,12.596
			l6.469-2.373c-0.479-3.919,0.318-6.804,2.372-8.59c3.135-2.73,7.907-1.724,9.592-1.246c2.6-0.739,5.375-3.168,7.247-4.807
			c2.054-1.804,3.402-2.998,4.955-1.9c1.621,1.144,1.041,3.038-1.172,8.607c-4.574,11.531-10.974,14.285-13.517,14.934
			c-2.39,0.614-4.631,0.296-5.996-0.843c-0.153-0.125-0.279-0.21-0.37-0.272l-0.244,0.233L106.336,116.175z M122.117,99.444
			c0.404,0.153,0.842,0.387,1.303,0.728l0.501,0.427c0.051,0.023,0.933,0.364,2.509-0.034c1.979-0.506,7.003-2.747,10.939-12.663
			c0.113-0.29,0.222-0.568,0.324-0.83c-2.1,1.724-4.733,3.566-7.51,4.146l-0.506,0.103l-0.489-0.165
			c-1.218-0.403-4.733-1.132-6.445,0.353c-1.53,1.337-1.325,4.329-0.882,6.61L122.117,99.444z M117.452,66.506
			c-0.022,0.131-0.045,0.256-0.068,0.37c-0.272,1.45-0.443,2.304-0.768,2.93c-0.962,1.849-3.146,2.577-4.739,3.105
			c-0.409,0.137-0.79,0.251-1.069,0.387c-1.348,0.62-2.873,1.326-2.708,5.279c0.148,3.721,2.116,5.581,2.202,5.661h0.006
			c1.706-1.36,9.796-8.221,8.095-15.048C118.259,68.616,117.748,67.263,117.452,66.506z"/>
		<path fill="#AA021E" d="M81.681,86.184c-4.842,0-8.784-3.942-8.784-8.789c0-4.848,3.942-8.79,8.784-8.79
			c4.847,0,8.789,3.942,8.789,8.79C90.47,82.241,86.528,86.184,81.681,86.184z M81.681,72.394c-2.754,0-4.995,2.241-4.995,5.001
			c0,2.759,2.241,5,4.995,5c2.759,0,5-2.241,5-5C86.681,74.635,84.44,72.394,81.681,72.394z"/>
		<path fill="#AA021E" d="M148.194,118.712c-5.114,0-9.272-4.164-9.272-9.278c0-5.108,4.158-9.268,9.272-9.268
			c5.109,0,9.268,4.159,9.268,9.268C157.461,114.548,153.303,118.712,148.194,118.712z M148.194,103.955
			c-3.026,0-5.483,2.458-5.483,5.479c0,3.026,2.457,5.489,5.483,5.489c3.021,0,5.479-2.463,5.479-5.489
			C153.672,106.413,151.215,103.955,148.194,103.955z"/>
		<path fill="#AA021E" d="M138.091,147.247c-4.983,0-9.04-4.051-9.04-9.028s4.057-9.028,9.04-9.028c4.978,0,9.027,4.051,9.027,9.028
			S143.069,147.247,138.091,147.247z M138.091,132.979c-2.896,0-5.251,2.35-5.251,5.239c0,2.891,2.355,5.239,5.251,5.239
			c2.89,0,5.239-2.349,5.239-5.239C143.331,135.329,140.981,132.979,138.091,132.979z"/>
		<path fill="#AA021E" d="M99.668,125.437c-4.841,0-8.783-3.937-8.783-8.778c0-4.847,3.942-8.789,8.783-8.789
			c4.847,0,8.789,3.942,8.789,8.789C108.458,121.5,104.515,125.437,99.668,125.437z M99.668,111.658c-2.753,0-4.994,2.241-4.994,5
			c0,2.754,2.241,4.989,4.994,4.989c2.76,0,5.001-2.235,5.001-4.989C104.669,113.899,102.428,111.658,99.668,111.658z"/>
		<path fill="#AA021E" d="M61.053,118.473c-4.983,0-9.04-4.056-9.04-9.039c0-4.978,4.057-9.028,9.04-9.028
			c4.978,0,9.028,4.051,9.028,9.028C70.082,114.417,66.031,118.473,61.053,118.473z M61.053,104.194
			c-2.896,0-5.251,2.35-5.251,5.239c0,2.896,2.355,5.251,5.251,5.251c2.89,0,5.239-2.355,5.239-5.251
			C66.292,106.544,63.943,104.194,61.053,104.194z"/>
		<path fill="#AA021E" d="M124.307,172.482c-20.878-2.076-21.129-25.912-21.129-26.151c-0.432-2.896-1.444-4.824-2.986-5.461
			c-2.52-1.064-6.405,1.234-7.571,2.116c-23.37,16.265-42.052-0.933-42.245-1.104l2.6-2.754c0.671,0.626,16.68,15.235,37.427,0.791
			c0.586-0.438,6.286-4.603,11.241-2.549c2.861,1.184,4.647,4.107,5.302,8.692c0.022,1.109,0.284,20.912,17.737,22.653
			L124.307,172.482z"/>
	</g>
</g>
</svg>
