<?xml version="1.0" encoding="utf-8"?>
<!-- Generator: Adobe Illustrator 16.0.0, SVG Export Plug-In . SVG Version: 6.00 Build 0)  -->
<!DOCTYPE svg PUBLIC "-//W3C//DTD SVG 1.1//EN" "http://www.w3.org/Graphics/SVG/1.1/DTD/svg11.dtd">
<svg version="1.1" xmlns="http://www.w3.org/2000/svg" xmlns:xlink="http://www.w3.org/1999/xlink" x="0px" y="0px" width="216px"
	 height="216px" viewBox="0 0 216 216" enable-background="new 0 0 216 216" xml:space="preserve">
<g id="Layer_2" display="none">
	<rect x="-1" y="-3" display="inline" fill="#CCCCCC" width="218" height="222"/>
</g>
<g id="Layer_1">
	<g>
		<path fill="#FFFFFF" d="M190.912,108c0,45.791-37.123,82.912-82.924,82.912c-45.778,0-82.899-37.121-82.899-82.912
			s37.121-82.912,82.899-82.912C153.789,25.088,190.912,62.209,190.912,108z"/>
		<path fill="#B0DCC5" d="M170.684,108c0,34.631-28.061,62.684-62.696,62.684c-34.606,0-62.684-28.053-62.684-62.684
			c0-34.619,28.077-62.684,62.684-62.684C142.623,45.316,170.684,73.381,170.684,108z"/>
		<path fill="#044324" d="M108.017,45.316c34.606,0,62.667,28.064,62.667,62.684c0,34.631-28.061,62.684-62.667,62.684
			c-34.636,0-62.713-28.053-62.713-62.684C45.304,73.381,73.381,45.316,108.017,45.316 M108.017,39.082
			c-38.015,0-68.947,30.91-68.947,68.918c0,38.01,30.933,68.93,68.947,68.93c37.991,0,68.907-30.92,68.907-68.93
			C176.924,69.992,146.008,39.082,108.017,39.082L108.017,39.082z"/>
		<g>
			<path fill="#064223" d="M90.218,155.49l-23.993-11.363v-7.977l-3.526-3.111l-3.812,4.033v12.52h-4.368v-14.26l7.906-8.367
				l8.169,7.219v7.178l15.256,7.225v-14.795c0.238-1.219,4.402-17.418,15.631-23.932c0.739-1.615,2.753-5.801,5.665-10.141v-26.32
				L96.481,84.064l-0.25-4.904c-0.438-8.338-0.074-8.635,0.796-9.346c6.866-5.5,8.532-10.318,8.55-10.363l0.5-1.49l6.156-0.018
				l0.244,41.729c1.393,1.93,4.789,6.883,5.732,10.371c2.76,1.809,10.764,8.162,14.955,23.162l0.08,0.545l0.137,7.65l13.4-0.135
				v-33.754h26.16v4.367H151.15v33.709l-22.059,0.227l-0.211-11.699c-4.488-15.752-13.543-20.717-13.635-20.768l-1.035-0.547
				l-0.125-1.172c-0.16-1.586-2.27-5.193-4.221-8.072c-2.878,4.563-4.665,8.676-4.681,8.721l-0.308,0.705l-0.677,0.359
				c-10.034,5.34-14.01,20.824-14.044,20.979L90.218,155.49z M100.44,72.67c-0.012,0.324-0.017,0.764-0.012,1.27l7.486-7.486
				l-0.018-2.041C106.521,66.59,104.2,69.537,100.44,72.67z"/>
			<path fill="#064223" d="M133.346,165.615l-3.191-1.648c-0.084-0.045-8.701-4.426-20.971-4.426
				c-6.912,0-13.681,1.371-20.125,4.078l-3.032,1.275v-23.51l1.132-0.627c0.398-0.215,9.847-5.33,22.588-5.33
				c8.082,0,15.666,2.066,22.531,6.133l1.068,0.631V165.615z M109.184,155.172c8.9,0,15.949,2.082,19.795,3.539v-14.004
				c-5.9-3.26-12.361-4.91-19.232-4.91c-9.169,0-16.61,2.98-19.351,4.238v14.379C96.458,156.26,102.766,155.172,109.184,155.172z"/>
			<rect x="106.953" y="138.023" fill="#064223" width="4.37" height="19.623"/>
			<rect x="97.311" y="139.752" fill="#064223" width="4.369" height="19.271"/>
			<rect x="117.664" y="139.172" fill="#064223" width="4.369" height="19.271"/>
		</g>
	</g>
</g>
</svg>
