<?xml version="1.0" encoding="utf-8"?>
<!-- Generator: Adobe Illustrator 16.0.0, SVG Export Plug-In . SVG Version: 6.00 Build 0)  -->
<!DOCTYPE svg PUBLIC "-//W3C//DTD SVG 1.1//EN" "http://www.w3.org/Graphics/SVG/1.1/DTD/svg11.dtd">
<svg version="1.1" xmlns="http://www.w3.org/2000/svg" xmlns:xlink="http://www.w3.org/1999/xlink" x="0px" y="0px" width="216px"
	 height="216px" viewBox="0 0 216 216" enable-background="new 0 0 216 216" xml:space="preserve">
<g id="Layer_2" display="none">
	<rect x="-1" y="-3" display="inline" fill="#CCCCCC" width="218" height="222"/>
</g>
<g id="Layer_1">
	<g>
		<path fill="#FFFFFF" d="M190.911,108c0,45.794-37.111,82.919-82.917,82.919c-45.782,0-82.905-37.125-82.905-82.919
			s37.123-82.919,82.905-82.919C153.8,25.081,190.911,62.206,190.911,108z"/>
		<path fill="#95D3C3" d="M170.694,108c0,34.633-28.057,62.689-62.7,62.689c-34.621,0-62.677-28.057-62.677-62.689
			c0-34.622,28.056-62.689,62.677-62.689C142.638,45.311,170.694,73.378,170.694,108z"/>
		<path fill="#145687" d="M108.018,45.311c34.62,0,62.677,28.067,62.677,62.689c0,34.633-28.057,62.689-62.677,62.689
			c-34.645,0-62.7-28.057-62.7-62.689C45.317,73.378,73.373,45.311,108.018,45.311 M108.018,39.075
			C70.006,39.075,39.06,69.988,39.06,108c0,38.001,30.946,68.936,68.958,68.936c37.977,0,68.923-30.935,68.923-68.936
			C176.94,69.988,145.994,39.075,108.018,39.075L108.018,39.075z"/>
		<path fill="#125787" d="M109.26,175.627l-0.643-4.323c13.237-1.969,13.166-10.951,11.479-25.508
			c-0.401-3.476-0.782-6.759-0.782-9.842c0-12.749,4.03-24.269,4.762-26.248c0.159-1.524,0.469-3.486,2.537-3.276
			c2.48,0.159,2.5,0.159,1.809,23.449c1.391,2.588,3.021,4.056,4.85,4.352c2.793,0.432,5.648-1.78,6.551-2.56l8.999-22.026
			l6.729,0.426c1.127-3.822,3.2-14.238-4.334-22.396l-0.7-0.757l1.047-7.679l-9.528,1.097l-0.757-0.904
			c-0.307-0.353-7.89-8.852-24.882-1.126c-4.304,1.957-13.853,12.351-23.088,22.396c-5.483,5.968-11.155,12.135-16.187,17.072
			c-10.644,10.461-18.035,12.275-30.286,15.285l-1.188,0.296l-1.047-4.244l1.194-0.29c11.915-2.93,18.477-4.545,28.267-14.165
			c4.952-4.857,10.584-10.984,16.031-16.912c10.4-11.315,19.383-21.088,24.492-23.415c16.971-7.714,26.387-1.148,29.174,1.411
			l12.891-1.485l-1.527,11.235c10.148,11.918,4.255,27.033,3.992,27.682l-0.588,1.468l-6.849-0.433l-8.474,20.291
			c-0.202,0.2-5.015,4.967-10.633,4.046c-3.401-0.553-6.194-2.97-8.305-7.186l-0.244-0.494l0.014-0.546
			c0.012-0.388,0.022-0.774,0.034-1.167c-0.239,2.195-0.387,4.488-0.387,6.804c0,2.827,0.367,5.99,0.754,9.341
			C125.862,157.589,127.634,172.896,109.26,175.627z"/>
		<polygon fill="#125787" points="120.635,141.808 72.554,121.09 72.554,51.488 76.923,51.488 76.923,118.211 122.364,137.792 		"/>
		<polygon fill="#125787" points="86.818,157.97 65.204,126.016 68.822,123.57 86.688,149.982 99.489,129.646 103.188,131.978 		"/>
	</g>
</g>
</svg>
