<?xml version="1.0" encoding="utf-8"?>
<!-- Generator: Adobe Illustrator 16.0.0, SVG Export Plug-In . SVG Version: 6.00 Build 0)  -->
<!DOCTYPE svg PUBLIC "-//W3C//DTD SVG 1.1//EN" "http://www.w3.org/Graphics/SVG/1.1/DTD/svg11.dtd">
<svg version="1.1" xmlns="http://www.w3.org/2000/svg" xmlns:xlink="http://www.w3.org/1999/xlink" x="0px" y="0px" width="216px"
	 height="216px" viewBox="0 0 216 216" enable-background="new 0 0 216 216" xml:space="preserve">
<g id="Layer_2" display="none">
	<rect x="-1" y="-3" display="inline" fill="#CCCCCC" width="218" height="222"/>
</g>
<g id="Layer_1">
	<g>
		<path fill="#FFFFFF" d="M190.911,108c0,45.786-37.129,82.904-82.918,82.904c-45.787,0-82.904-37.118-82.904-82.904
			s37.117-82.904,82.904-82.904C153.782,25.096,190.911,62.214,190.911,108z"/>
		<path fill="#F8C0D2" d="M170.686,108c0,34.615-28.063,62.679-62.692,62.679c-34.616,0-62.68-28.063-62.68-62.679
			c0-34.627,28.063-62.69,62.68-62.69C142.622,45.31,170.686,73.373,170.686,108z"/>
		<path fill="#720E2E" d="M108.004,45.31c34.618,0,62.682,28.063,62.682,62.69c0,34.615-28.063,62.679-62.682,62.679
			c-34.627,0-62.69-28.063-62.69-62.679C45.313,73.373,73.377,45.31,108.004,45.31 M108.004,39.076
			C69.999,39.076,39.08,69.983,39.08,108c0,38.006,30.919,68.924,68.924,68.924c37.997,0,68.916-30.918,68.916-68.924
			C176.92,69.983,146.001,39.076,108.004,39.076L108.004,39.076z"/>
		<g>
			<defs>
				<path id="SVGID_3_" d="M172.631,108.512c0,35.685-29.008,64.613-64.798,64.613c-35.787,0-64.795-28.929-64.795-64.613
					s29.008-64.613,64.795-64.613C143.623,43.899,172.631,72.827,172.631,108.512z"/>
			</defs>
			<clipPath id="SVGID_2_">
				<use xlink:href="#SVGID_3_"  overflow="visible"/>
			</clipPath>
			<g clip-path="url(#SVGID_2_)">
				<path fill="#720E2E" d="M150.921,161.316h-45.886v-13.411H84.963l-0.23-1.929c-0.443-3.725-2.562-11.893-5.964-11.893H46.258
					v-4.368h32.511c6.738,0,9.227,9.51,10.008,13.821h20.627v13.411h30.54l-20.004-18.929l0.819-1.479
					c8.054-14.504,0.341-22.984-1.809-24.952l-12.217-0.244c-2.711,0.188-4.264-0.996-5.055-2.025
					c-2.175-2.827-0.759-7.286-0.591-7.786l6.845-13.352l-3.959-5.713l1.295-1.291c2.255-2.252,3.537-6.533,3.262-10.909
					c-0.225-3.578-1.473-6.575-3.342-8.022c-3.709-2.873-7.582-4.033-11.509-3.427c-8.461,1.28-14.687,10.033-14.749,10.122
					l-2.135,3.043l-1.619-3.344c-0.116-0.23-3.119-5.972-11.361-4.513l-0.762-4.3c6.922-1.234,11.626,1.507,14.191,4.263
					c2.795-3.154,8.48-8.483,15.78-9.59c5.155-0.771,10.144,0.666,14.837,4.294c2.889,2.235,4.721,6.319,5.03,11.202
					c0.308,4.889-0.952,9.635-3.333,12.866l3.458,4.988l-7.917,15.383c-0.236,0.796-0.475,2.761,0.043,3.427
					c0.268,0.35,1.031,0.35,1.486,0.324l13.89,0.27l0.569,0.43c0.142,0.105,13.713,10.688,4.288,29.474L150.921,161.316z"/>
				<path fill="#720E2E" d="M89.337,111.731H77.403v-5.688H52.287l6.342-11.299l1.692,0.523c0.017,0.005,1.715,0.521,4.146,0.521
					c5.423,0,12.723-2.46,16.705-14.177l0.986-2.904l2.42,1.883c3.782,2.94,4.007,3.413,4.096,4.351l0.088,0.941l-0.438,0.506
					l-0.955,1.905l7.792,12.806c0.088,0.597,0.799,5.901-1.687,8.788C92.437,111.094,91.007,111.731,89.337,111.731z
					 M81.772,107.363h7.564c0.506,0,0.691-0.167,0.828-0.324c0.779-0.904,0.893-3.279,0.728-4.863l-8.23-13.173
					c-5.423,9.555-13.442,11.154-18.194,11.154c-1.477,0-2.745-0.154-3.689-0.316l-1.029,1.834h22.023V107.363z"/>
				<path fill="#720E2E" d="M95.765,161.646c-5.018,0-9.102-4.078-9.102-9.089c0-4.932,3.914-8.646,9.102-8.646
					c5.187,0,9.1,3.714,9.1,8.646C104.864,157.568,100.78,161.646,95.765,161.646z M95.765,148.28c-2.353,0-4.732,1.468-4.732,4.277
					c0,2.605,2.121,4.721,4.732,4.721c2.609,0,4.731-2.115,4.731-4.721C100.496,149.748,98.116,148.28,95.765,148.28z"/>
				<path fill="#720E2E" d="M73.764,151.158c-5.463,0-9.907-4.441-9.907-9.896c0-5.466,4.444-9.908,9.907-9.908
					c5.458,0,9.897,4.442,9.897,9.908C83.661,146.717,79.222,151.158,73.764,151.158z M73.764,135.722
					c-3.054,0-5.54,2.486-5.54,5.54c0,3.049,2.486,5.528,5.54,5.528c3.049,0,5.528-2.479,5.528-5.528
					C79.292,138.208,76.813,135.722,73.764,135.722z"/>
				<path fill="#720E2E" d="M54.744,151.158c-5.851,0-8.577-7.86-8.577-13.173c0-6.632,4.755-6.632,8.577-6.632
					c5.463,0,9.907,4.442,9.907,9.908C64.651,146.717,60.207,151.158,54.744,151.158z M54.744,135.722
					c-4.209,0-4.209,0.086-4.209,2.264c0,3.965,1.942,8.805,4.209,8.805c3.054,0,5.54-2.479,5.54-5.528
					C60.284,138.208,57.798,135.722,54.744,135.722z"/>
			</g>
		</g>
	</g>
</g>
</svg>
