<?xml version="1.0" encoding="utf-8"?>
<!-- Generator: Adobe Illustrator 16.0.0, SVG Export Plug-In . SVG Version: 6.00 Build 0)  -->
<!DOCTYPE svg PUBLIC "-//W3C//DTD SVG 1.1//EN" "http://www.w3.org/Graphics/SVG/1.1/DTD/svg11.dtd">
<svg version="1.1" xmlns="http://www.w3.org/2000/svg" xmlns:xlink="http://www.w3.org/1999/xlink" x="0px" y="0px" width="216px"
	 height="216px" viewBox="0 0 216 216" enable-background="new 0 0 216 216" xml:space="preserve">
<g id="Layer_2">
	<rect x="-1" y="-3" fill="#CCCCCC" width="218" height="222"/>
</g>
<g id="Layer_1">
	<g>
		<path fill="#FFFFFF" d="M190.912,108c0,45.803-37.119,82.913-82.911,82.913c-45.791,0-82.913-37.11-82.913-82.913
			c0-45.791,37.122-82.913,82.913-82.913C153.793,25.087,190.912,62.209,190.912,108z"/>
		<path fill="#E1C2DD" d="M170.686,108c0,34.631-28.059,62.696-62.685,62.696c-34.619,0-62.685-28.065-62.685-62.696
			c0-34.619,28.065-62.686,62.685-62.686C142.627,45.314,170.686,73.381,170.686,108z"/>
		<path fill="#3D1149" d="M108.013,45.314c34.614,0,62.673,28.066,62.673,62.686c0,34.631-28.059,62.696-62.673,62.696
			c-34.631,0-62.696-28.065-62.696-62.696C45.316,73.381,73.382,45.314,108.013,45.314 M108.013,39.08
			c-38.01,0-68.931,30.91-68.931,68.92s30.921,68.931,68.931,68.931c37.997,0,68.913-30.921,68.913-68.931
			S146.01,39.08,108.013,39.08L108.013,39.08z"/>
		<g>
			<defs>
				<path id="SVGID_1_" d="M174.248,110.594c0,36.462-29.557,66.019-66.02,66.019c-36.456,0-66.013-29.557-66.013-66.019
					c0-36.45,29.557-66.007,66.013-66.007C144.691,44.587,174.248,74.144,174.248,110.594z"/>
			</defs>
			<clipPath id="SVGID_2_">
				<use xlink:href="#SVGID_1_"  overflow="visible"/>
			</clipPath>
			<path clip-path="url(#SVGID_2_)" fill="#3D1149" d="M55.433,150.782c-2.603,0-3.916-1.144-4.562-2.1
				c-1.383-2.059-1.141-5.182,0.759-9.841c0.296-0.728,3.104-4.772,6.482-8.321c-9.645-2.253-25.737-6.417-27.947-9.54
				c-2.406-3.418,1.951-43.618,4.762-67.275l0.19-1.604l19.106-0.751c-0.088-0.011,6.234-1.45,15.939-1.45
				c16.553,0,47.698,4.482,70.806,34.409c2.201,1.052,11.748,5.921,15.926,12.895c2.686,0.029,4.412,0.813,5.135,2.338
				c0.705,1.485,0.225,3.271-1.428,5.296l-10.898,16.081c-0.059,0.046-0.785,0.683-0.701,1.792c0.086,1.144,1.096,3.59,6.875,7.07
				c0.73,0.353,5.045,2.662,5.008,5.928c-0.014,1.172-0.586,2.821-3.176,4.135c-1.127,1.075-5.348,4.448-13.785,4.448
				c-2.406,0-4.986-0.272-7.674-0.818l-40.88-4.665c-0.042,0.034-1.476,0.159-3.355,0.159c-3.852,0-6.909-0.5-9.11-1.484
				C78.593,140.463,63.117,150.782,55.433,150.782z M38.496,55.753c-3.362,28.566-6.266,60.018-5.126,63.248
				c1.474,1.559,16.237,5.751,28.991,8.606l3.666,0.825l-2.842,2.457c-3.984,3.447-7.741,8.823-8.097,9.482
				c-1.877,4.619-1.227,5.973-1.075,6.194c0.236,0.354,0.901,0.427,1.419,0.427c6.158,0,21.024-9.579,26.234-13.271L82.694,133
				l1.066,0.66c1.578,0.979,4.511,1.519,8.254,1.519c1.886,0,3.271-0.137,3.313-0.143l41.514,4.699
				c2.6,0.523,4.928,0.773,7.078,0.773c7.969,0,11.129-3.345,11.26-3.487l0.605-0.449c1.152-0.54,1.318-0.933,1.318-0.933
				c-0.041-0.507-1.605-1.826-3.045-2.543c-5.727-3.441-8.656-6.86-8.842-10.233c-0.137-2.52,1.264-4.124,1.902-4.715l10.441-15.558
				c0.717-0.888,0.918-1.36,0.977-1.542c-0.123,0.119-0.713-0.057-1.787-0.057c-0.424,0-0.729,0.028-0.762,0.028l-1.295,0.125
				l-0.586-1.16c-3.578-7.145-15.025-12.384-15.139-12.435l-0.727-0.575c-21.035-27.514-48.631-33.293-68.079-33.293
				c-9.238,0-15.379,1.394-15.438,1.404L38.496,55.753z"/>
			<path clip-path="url(#SVGID_2_)" fill="#3D1149" d="M109.873,134.997l-6.229-3.248C84.076,121.55,83.539,94.82,83.524,93.688
				l-0.003-0.342l0.117-0.324c3.276-9.124,9.82-11.035,14.732-11.035c6.826,0,13.108,3.623,13.373,3.777l8.061,4.704l-9.258-1.194
				c-5.43-0.672-10.324,2.081-10.367,2.11c-2.438,0.961-3.845,2.423-4.559,4.579c-2.938,8.879,6.584,26.899,10.5,33.095
				L109.873,134.997z M87.321,93.973c0.108,2.543,1.181,18.999,11.227,29.301c-4.085-8.044-9.173-20.489-6.522-28.499
				c1.078-3.254,3.276-5.546,6.533-6.803c0,0.006,0,0.006,0,0.006c-0.025,0,1.615-0.928,4.145-1.679
				c-1.374-0.313-2.848-0.528-4.332-0.528C93.024,85.771,89.406,88.455,87.321,93.973z"/>
			<path clip-path="url(#SVGID_2_)" fill="#3D1149" d="M143.129,138c-4.289,0-9.064-1.569-9.264-1.638l-0.619-0.348
				c-8.951-7.52-13.521-7.975-13.564-7.98l-1.905-0.159l0.137-1.899c1.667-18.215,30.601-24.518,31.831-24.779l2.188-0.46
				l0.094,2.235c0.104,2.423-0.232,3.902-1.086,4.789c-0.361,0.376-0.809,0.626-1.291,0.74l-10.867,13.675
				c3.791,9.374,9.514,10.091,9.764,10.119l3.111,0.33l-1.709,2.605C148.719,137.067,146.424,138,143.129,138z M135.391,132.869
				c1.117,0.348,4.949,1.514,8.02,1.343c-2.766-1.752-6.156-5.143-8.563-11.718l-0.365-0.996l12.43-15.637
				c-7.146,2.11-22.598,7.89-24.975,18.816C124.346,125.412,128.828,127.408,135.391,132.869z"/>
			<path clip-path="url(#SVGID_2_)" fill="#3D1149" d="M127.125,103.193c-3.254,0-5.904-2.65-5.904-5.91s2.65-5.91,5.904-5.91
				s5.904,2.65,5.904,5.91S130.379,103.193,127.125,103.193z M127.125,95.161c-1.166,0-2.115,0.95-2.115,2.122
				s0.949,2.122,2.115,2.122s2.117-0.95,2.117-2.122S128.291,95.161,127.125,95.161z"/>
		</g>
	</g>
</g>
</svg>
